<?xml version="1.0" standalone="no"?>
<!DOCTYPE svg PUBLIC "-//W3C//DTD SVG 20010904//EN"
 "http://www.w3.org/TR/2001/REC-SVG-20010904/DTD/svg10.dtd">
<svg version="1.0" xmlns="http://www.w3.org/2000/svg"
 width="2214.000000pt" height="2214.000000pt" viewBox="0 0 2214.000000 2214.000000"
 preserveAspectRatio="xMidYMid meet">
<metadata>
Created by potrace 1.11, written by Peter Selinger 2001-2013
</metadata>
<g transform="translate(0.000000,2214.000000) scale(0.100000,-0.100000)"
fill="#000000" stroke="none">
<path d="M10677 21394 c-1 -1 -63 -5 -137 -9 -176 -8 -341 -19 -465 -31 -27
-2 -70 -6 -95 -9 -173 -15 -473 -54 -730 -96 -163 -26 -507 -94 -640 -126 -58
-13 -114 -26 -125 -29 -49 -9 -353 -90 -495 -131 -262 -75 -576 -180 -820
-273 -74 -29 -147 -55 -161 -60 -14 -4 -34 -12 -45 -18 -10 -5 -77 -34 -149
-63 -71 -29 -172 -72 -223 -96 -52 -24 -95 -43 -97 -43 -14 0 -440 -210 -620
-305 -372 -197 -804 -463 -1175 -723 -113 -79 -420 -309 -478 -358 -10 -7 -46
-37 -82 -65 -59 -47 -288 -237 -300 -249 -3 -3 -43 -39 -90 -80 -371 -326
-767 -729 -1102 -1120 -181 -212 -518 -649 -649 -840 -24 -36 -46 -67 -49 -70
-6 -5 -70 -103 -192 -290 -97 -149 -241 -388 -323 -535 -426 -764 -749 -1526
-979 -2310 -71 -244 -178 -663 -191 -750 -2 -11 -4 -20 -5 -20 -1 0 -3 -11 -6
-24 -2 -13 -15 -77 -29 -143 -22 -108 -65 -343 -80 -443 -3 -22 -7 -51 -10
-65 -2 -14 -9 -61 -15 -105 -6 -44 -13 -91 -15 -105 -2 -14 -7 -50 -10 -80 -3
-30 -8 -66 -10 -80 -5 -36 -14 -117 -20 -175 -2 -27 -7 -75 -10 -105 -19 -205
-31 -384 -41 -634 -6 -145 -5 -705 0 -831 7 -139 17 -316 21 -360 2 -22 6 -78
10 -125 5 -77 17 -202 31 -320 2 -25 7 -65 10 -90 8 -73 17 -140 44 -325 27
-177 30 -197 35 -215 2 -8 7 -35 10 -60 6 -46 46 -257 64 -340 212 -972 491
-1783 902 -2615 134 -272 226 -445 310 -588 33 -55 59 -101 59 -103 0 -9 204
-339 212 -342 4 -2 8 -8 8 -13 0 -23 385 -582 523 -759 165 -212 212 -271 352
-439 292 -352 757 -830 1105 -1137 89 -79 245 -213 290 -250 310 -257 596
-470 950 -704 107 -72 204 -136 215 -143 58 -40 374 -227 382 -227 5 0 29 35
53 78 25 42 49 85 55 94 5 9 20 34 31 55 12 21 79 137 149 258 71 121 137 236
148 255 22 39 161 280 302 525 51 88 101 175 111 192 30 52 308 534 469 813
81 140 159 275 173 300 14 25 45 78 69 118 24 41 43 75 43 77 0 2 17 32 38 66
21 35 55 94 76 130 l37 67 -153 93 c-151 92 -386 247 -483 319 -181 133 -276
205 -299 225 -6 6 -33 28 -61 50 -164 131 -361 311 -561 510 -194 194 -242
244 -369 390 -33 37 -65 73 -70 79 -6 6 -58 70 -116 141 -451 559 -828 1191
-1099 1840 -45 109 -103 254 -107 270 -1 6 -23 69 -48 140 -123 345 -227 733
-300 1120 -9 49 -36 217 -41 254 -2 19 -7 48 -10 65 -9 46 -12 74 -19 156 -4
41 -8 77 -10 80 -2 3 -6 43 -10 90 -3 47 -8 99 -10 115 -27 232 -27 993 0
1245 2 19 6 64 10 100 3 36 10 99 15 140 5 41 12 98 15 125 15 127 53 358 75
465 5 25 12 56 14 70 34 196 155 641 252 923 116 337 202 543 369 882 176 357
305 581 514 890 129 192 328 463 371 505 3 3 32 39 65 80 33 41 73 91 91 110
17 19 68 78 114 130 96 109 467 481 584 585 942 837 2041 1418 3242 1714 88
21 173 42 190 45 16 2 85 16 154 30 69 14 141 28 160 31 19 3 46 8 60 10 14 3
43 7 65 10 22 3 49 7 61 9 12 2 45 7 75 11 30 3 65 8 79 10 14 2 72 9 130 15
58 6 125 13 150 16 302 32 959 37 1240 10 19 -2 73 -7 120 -11 47 -3 98 -8
115 -10 16 -2 74 -9 129 -15 54 -6 106 -13 116 -15 9 -2 41 -6 70 -10 29 -4
60 -8 69 -10 9 -1 36 -6 61 -10 51 -8 74 -12 110 -20 14 -2 39 -7 55 -10 142
-23 646 -142 700 -165 11 -5 70 -23 130 -41 501 -147 1133 -427 1620 -718 39
-23 77 -46 85 -51 330 -196 839 -578 1126 -842 377 -347 648 -641 918 -993 59
-77 113 -147 119 -155 7 -8 53 -73 103 -145 463 -662 827 -1420 1050 -2185 25
-85 47 -162 49 -170 2 -8 13 -53 25 -100 12 -47 23 -92 25 -100 2 -8 11 -46
20 -85 19 -81 36 -161 40 -192 2 -11 6 -29 9 -40 3 -10 8 -34 11 -53 3 -19 7
-46 10 -60 3 -14 7 -41 10 -60 3 -19 10 -60 15 -90 5 -30 12 -75 15 -100 3
-25 8 -56 10 -70 2 -14 7 -50 10 -80 3 -30 8 -66 10 -80 2 -14 6 -61 10 -105
4 -44 8 -87 10 -95 2 -8 6 -73 10 -145 5 -71 9 -148 11 -170 10 -126 2 -688
-11 -855 -13 -167 -16 -198 -21 -245 -2 -27 -7 -66 -9 -85 -2 -19 -7 -57 -10
-85 -7 -60 -15 -121 -20 -155 -3 -14 -9 -56 -15 -95 -11 -76 -13 -92 -36 -210
-8 -44 -17 -91 -20 -105 -44 -241 -155 -650 -262 -961 -80 -235 -256 -664
-327 -799 -7 -14 -35 -68 -61 -120 -99 -199 -170 -328 -277 -505 -449 -747
-1062 -1453 -1727 -1991 -47 -38 -87 -71 -90 -74 -36 -40 -665 -481 -715 -501
-5 -2 -27 -15 -47 -28 -33 -20 -36 -25 -27 -44 6 -11 135 -225 287 -476 151
-251 314 -520 361 -599 47 -78 93 -155 101 -170 8 -15 17 -29 20 -32 3 -3 12
-17 20 -33 8 -15 126 -210 261 -435 136 -224 358 -591 494 -817 136 -225 248
-412 250 -414 14 -14 765 484 900 597 6 4 37 28 70 52 160 117 540 428 696
570 15 14 65 59 110 100 201 182 605 586 736 736 10 12 46 52 80 90 83 94 250
289 293 344 19 25 40 51 48 58 7 8 25 30 40 50 15 21 33 43 40 51 23 24 325
430 392 526 407 587 750 1195 1035 1835 26 58 56 124 66 147 10 23 19 45 19
48 0 3 9 27 21 52 93 204 318 837 389 1093 10 36 28 97 40 135 48 159 170 669
205 855 3 14 9 50 15 80 10 54 15 81 25 130 2 14 7 45 11 70 3 24 7 47 9 50 2
4 7 29 10 56 4 27 13 90 20 139 8 50 16 113 20 140 3 28 10 79 15 115 5 36 12
92 15 125 4 33 8 71 10 85 2 14 7 59 10 100 3 41 8 95 10 120 3 25 7 88 10
140 4 52 8 111 10 130 23 189 23 1052 1 1335 -3 33 -8 103 -11 155 -4 52 -8
113 -10 135 -2 22 -7 72 -10 110 -4 39 -8 84 -10 100 -2 17 -7 57 -10 90 -4
33 -8 74 -10 90 -3 17 -9 68 -15 115 -30 231 -78 521 -121 730 -11 52 -22 106
-24 120 -10 55 -56 254 -99 420 -161 637 -384 1271 -659 1875 -47 104 -290
588 -340 680 -46 82 -148 263 -184 325 -102 176 -449 711 -525 810 -10 14 -69
93 -130 175 -92 124 -231 304 -309 400 -40 49 -256 303 -280 330 -15 17 -37
41 -49 55 -125 145 -540 567 -739 750 -62 58 -119 110 -125 115 -6 6 -81 71
-166 144 -537 463 -1115 871 -1748 1235 -73 42 -135 76 -137 76 -2 0 -30 15
-62 34 -182 106 -643 328 -968 466 -292 124 -911 350 -1030 376 -5 1 -63 18
-128 38 -244 74 -689 187 -874 221 -16 3 -37 7 -48 9 -27 6 -223 44 -260 51
-16 2 -41 7 -55 10 -14 3 -45 8 -70 11 -25 3 -54 8 -65 11 -11 3 -31 7 -45 8
-21 2 -59 8 -210 30 -41 6 -102 14 -160 20 -30 3 -66 8 -80 10 -14 3 -54 7
-90 10 -36 3 -72 8 -80 10 -8 2 -60 7 -115 10 -55 4 -113 8 -130 10 -16 2 -82
7 -145 11 -63 3 -142 8 -175 11 -68 4 -934 11 -938 7z"/>
<path d="M10759 16456 c-2 -2 -57 -7 -122 -10 -65 -4 -126 -9 -135 -11 -9 -1
-53 -6 -97 -9 -44 -4 -87 -9 -95 -11 -8 -2 -39 -7 -69 -10 -30 -4 -61 -8 -70
-10 -9 -1 -36 -6 -61 -9 -25 -3 -56 -8 -70 -11 -14 -3 -61 -12 -105 -20 -686
-124 -1401 -396 -2020 -768 -90 -54 -381 -245 -409 -268 -6 -5 -60 -46 -121
-91 -368 -273 -758 -648 -1059 -1018 -42 -52 -83 -102 -90 -111 -7 -9 -56 -74
-108 -145 -428 -584 -738 -1213 -942 -1914 -25 -85 -53 -186 -62 -225 -9 -38
-18 -77 -20 -85 -6 -27 -53 -254 -59 -285 -2 -16 -7 -42 -10 -58 -20 -111 -28
-168 -50 -344 -36 -303 -47 -650 -32 -1008 4 -93 9 -183 11 -200 2 -16 7 -64
10 -105 4 -41 9 -88 11 -105 2 -16 7 -50 10 -75 8 -65 25 -185 30 -211 3 -13
7 -39 10 -59 4 -28 39 -199 71 -350 45 -216 172 -615 284 -895 77 -192 268
-589 337 -697 12 -21 23 -40 23 -42 0 -9 157 -262 222 -358 113 -170 304 -426
389 -523 14 -16 59 -68 100 -115 111 -129 260 -283 410 -425 515 -488 1155
-907 1794 -1175 83 -34 158 -67 168 -72 39 -20 364 -131 492 -168 197 -57 489
-128 595 -144 19 -3 46 -8 60 -11 14 -3 39 -7 55 -10 17 -3 44 -7 60 -10 17
-3 48 -7 70 -10 22 -3 51 -7 65 -10 86 -15 400 -44 565 -51 112 -5 493 -4 570
0 187 13 254 17 280 20 17 2 57 7 90 10 33 4 80 9 105 12 56 7 346 52 380 59
14 3 50 10 80 16 81 15 375 87 450 109 36 11 68 20 72 20 4 0 27 8 50 16 24 9
50 17 58 19 87 20 456 162 659 253 225 100 575 288 734 393 32 22 60 39 62 39
8 0 276 187 370 259 123 93 108 81 235 187 236 196 434 388 684 664 108 118
328 401 448 575 64 93 218 334 218 342 0 3 8 17 19 31 29 42 201 361 230 427
5 11 22 49 39 85 16 36 44 99 62 140 18 41 38 89 46 105 18 40 105 266 109
285 2 8 18 56 36 105 42 122 132 438 159 560 12 55 23 107 25 115 22 96 71
382 81 470 2 25 6 59 9 75 2 17 7 62 10 100 4 39 9 84 11 100 24 203 24 865
-1 1060 -2 17 -6 59 -10 95 -10 114 -24 221 -41 320 -2 14 -6 43 -9 65 -6 48
-15 95 -56 284 -146 694 -422 1367 -809 1981 -60 95 -158 241 -192 285 -4 6
-32 44 -63 85 -30 41 -58 80 -63 85 -4 6 -34 44 -67 85 -170 216 -412 476
-641 690 -179 167 -476 403 -697 555 -66 46 -60 42 -244 156 -525 326 -1067
557 -1683 718 -63 16 -126 32 -140 35 -14 3 -68 14 -120 26 -102 22 -111 24
-210 39 -36 6 -74 13 -85 15 -11 2 -45 7 -75 11 -30 4 -62 9 -70 10 -8 1 -44
6 -80 10 -36 4 -76 9 -90 11 -14 2 -61 6 -105 9 -44 4 -93 9 -110 12 -34 5
-751 14 -756 9z m531 -420 c91 -4 190 -8 220 -11 91 -7 321 -32 370 -40 14 -2
57 -9 95 -15 97 -14 131 -20 345 -65 194 -41 472 -122 695 -203 155 -56 347
-133 369 -148 19 -13 19 -26 17 -276 -4 -364 -9 -1000 -12 -1385 l-2 -323 -66
-1 c-36 0 -332 -1 -658 -3 -326 -1 -594 -4 -596 -6 -3 -3 2 -48 9 -100 15
-112 21 -154 29 -235 4 -33 8 -70 10 -81 2 -12 6 -61 10 -110 3 -49 8 -96 10
-104 2 -8 7 -46 10 -85 12 -143 22 -267 30 -340 2 -22 7 -76 10 -120 4 -44 8
-93 10 -110 1 -16 6 -64 9 -105 4 -41 9 -91 11 -110 2 -19 7 -64 10 -100 3
-36 8 -83 10 -105 2 -22 7 -67 10 -100 16 -167 53 -494 80 -707 3 -21 7 -57
10 -80 3 -24 8 -60 11 -81 3 -20 7 -47 9 -60 7 -57 17 -132 20 -146 2 -9 6
-44 10 -76 8 -67 12 -89 19 -113 3 -9 7 -37 10 -62 4 -25 8 -58 11 -75 11 -67
15 -91 20 -115 3 -14 8 -41 11 -60 13 -82 85 -436 109 -536 15 -60 28 -118 31
-129 13 -68 94 -345 140 -483 172 -514 379 -846 635 -1020 42 -28 370 -202
382 -202 2 0 4 66 5 148 0 81 3 464 6 852 4 388 9 950 11 1250 3 300 7 838 10
1195 3 358 8 889 10 1180 7 954 23 2812 25 2877 l0 28 29 -18 c16 -9 60 -35
98 -56 118 -68 310 -193 436 -283 101 -72 351 -268 393 -307 6 -6 52 -47 102
-91 87 -77 333 -321 437 -435 132 -143 300 -355 437 -550 86 -123 288 -442
288 -455 0 -3 11 -23 25 -45 38 -61 187 -362 239 -485 26 -60 51 -119 56 -130
95 -215 221 -625 290 -940 28 -128 27 -126 34 -166 45 -282 43 -271 51 -334 3
-27 8 -66 10 -85 34 -257 40 -884 10 -1144 -2 -17 -6 -58 -9 -91 -7 -66 -16
-137 -22 -174 -2 -13 -6 -45 -10 -70 -3 -25 -8 -57 -10 -71 -2 -14 -7 -41 -10
-60 -3 -19 -16 -89 -30 -155 -14 -66 -28 -131 -30 -145 -73 -374 -318 -1028
-530 -1410 -23 -41 -54 -97 -69 -125 -115 -207 -331 -527 -498 -735 -287 -356
-661 -721 -1027 -999 -651 -496 -1396 -840 -2210 -1021 -89 -20 -262 -52 -340
-64 -249 -36 -340 -45 -605 -62 -93 -5 -516 -5 -590 1 -27 2 -88 6 -135 10
-87 6 -98 7 -255 25 -118 14 -330 47 -410 64 -52 11 -182 38 -195 41 -47 10
-117 29 -130 36 -13 6 -16 27 -14 116 5 227 27 609 39 683 2 14 7 52 10 85 41
393 126 767 212 940 31 62 67 106 178 220 145 149 312 341 411 471 31 40 78
153 89 211 2 13 10 58 19 100 16 83 31 220 42 367 17 246 1 842 -31 1171 -2
22 -7 72 -10 110 -8 98 -21 227 -30 300 -3 22 -7 63 -10 90 -11 101 -31 263
-41 325 -2 14 -6 52 -10 85 -3 33 -7 66 -10 74 -2 8 -11 62 -19 120 -8 58 -17
115 -19 126 -2 11 -7 40 -10 65 -3 25 -8 55 -10 66 -2 12 -7 39 -10 60 -18
108 -63 350 -91 484 -2 8 -13 62 -25 120 -40 191 -117 451 -148 496 -12 18
-47 33 -59 26 -25 -16 -32 -65 -28 -204 5 -147 10 -260 19 -383 3 -38 8 -113
11 -165 3 -52 8 -120 10 -150 3 -30 7 -95 10 -145 7 -122 14 -236 20 -320 8
-110 14 -229 20 -375 3 -74 8 -175 10 -225 6 -115 6 -635 0 -695 -2 -25 -7
-72 -10 -105 -17 -178 -54 -285 -97 -285 -78 0 -156 271 -193 670 -3 36 -8 81
-10 100 -5 38 -11 111 -21 260 -3 52 -7 115 -9 140 -7 87 -28 543 -40 860 -17
425 -28 637 -40 745 -2 22 -7 67 -11 100 -10 92 -35 159 -61 163 -28 4 -34
-13 -47 -138 -4 -30 -9 -109 -11 -175 -3 -66 -7 -163 -10 -215 -2 -52 -7 -178
-10 -280 -3 -102 -7 -246 -10 -320 -3 -74 -8 -216 -11 -315 -7 -202 -9 -238
-18 -450 -4 -82 -9 -170 -11 -195 -2 -25 -7 -94 -11 -155 -3 -60 -8 -126 -9
-145 -19 -212 -22 -238 -41 -363 -25 -174 -56 -287 -78 -287 -23 0 -65 126
-80 240 -3 25 -9 68 -12 95 -4 28 -8 66 -9 85 -4 51 -16 251 -21 355 -3 50 -7
531 -9 1070 -4 891 -7 1100 -19 1160 -3 11 -5 23 -5 26 -2 18 -33 16 -50 -3
-60 -64 -111 -387 -136 -858 -5 -114 -14 -337 -20 -515 -20 -610 -26 -728 -50
-1027 -21 -260 -59 -461 -105 -564 -67 -150 -137 -139 -179 28 -36 143 -45
275 -45 663 0 350 11 654 39 1095 3 41 7 113 10 160 3 47 7 114 9 150 3 36 7
110 11 165 3 55 8 125 10 155 17 222 21 494 9 533 -18 59 -53 38 -92 -55 -27
-64 -92 -278 -106 -348 -3 -14 -21 -95 -40 -180 -20 -85 -37 -166 -40 -180 -2
-14 -14 -77 -25 -140 -20 -109 -24 -132 -36 -190 -2 -14 -7 -41 -10 -60 -6
-36 -11 -66 -20 -122 -10 -55 -14 -81 -20 -128 -3 -25 -13 -85 -20 -135 -15
-97 -37 -267 -60 -465 -4 -30 -8 -66 -10 -80 -2 -14 -6 -56 -9 -95 -4 -38 -9
-86 -11 -105 -7 -48 -19 -199 -29 -350 -4 -47 -9 -114 -12 -150 -13 -169 -20
-687 -9 -825 2 -33 7 -100 10 -150 3 -49 8 -103 10 -120 3 -16 7 -48 10 -70
34 -253 92 -419 193 -553 89 -119 116 -146 227 -232 116 -90 144 -116 195
-185 96 -127 194 -391 236 -635 4 -25 8 -47 9 -50 2 -8 16 -101 21 -140 3 -19
7 -45 9 -56 2 -12 6 -61 10 -110 3 -49 8 -96 10 -104 12 -42 26 -660 17 -701
-9 -41 -641 242 -945 423 -55 32 -101 58 -103 58 -3 0 -17 9 -32 19 -15 10
-95 64 -179 120 -493 326 -926 728 -1343 1248 -14 17 -32 41 -40 53 -8 12 -33
46 -56 75 -22 29 -88 124 -146 212 -401 601 -683 1272 -833 1978 -11 54 -44
235 -50 275 -3 25 -8 56 -10 70 -8 54 -25 188 -30 245 -4 33 -8 74 -10 90 -23
183 -23 843 -1 985 3 14 7 59 11 100 9 104 23 208 60 440 4 20 37 182 50 240
178 806 569 1622 1090 2275 48 61 96 119 106 130 9 11 55 63 100 115 92 106
373 388 462 465 32 28 68 59 81 70 465 414 1111 797 1736 1030 368 137 845
258 1185 300 17 3 53 7 80 10 28 4 61 8 75 10 14 2 59 7 100 10 41 4 91 8 110
10 19 2 121 7 225 10 105 4 191 8 192 9 2 1 20 1 40 0 21 -1 112 -5 203 -8z"/>
</g>
</svg>
